<?xml version="1.0" encoding="UTF-8"?><svg id="Layer_2" xmlns="http://www.w3.org/2000/svg" viewBox="0 0 47.65 395.68"><g id="Layer_1-2"><g><path d="m35.74,3.21c5.7,3.3,9.52,8.6,11.1,14.51,1.58,5.9.91,12.41-2.38,18.13-3.29,5.71-8.58,9.55-14.46,11.13-5.89,1.58-12.38.91-18.08-2.39-5.7-3.3-9.52-8.6-11.1-14.51C-.76,24.17-.09,17.66,3.2,11.95,6.48,6.24,11.77,2.4,17.66.82c5.89-1.58,12.38-.91,18.08,2.39Zm9.66,14.89c-1.48-5.54-5.07-10.51-10.41-13.6-5.34-3.09-11.43-3.72-16.95-2.24-5.52,1.48-10.48,5.08-13.56,10.44-3.08,5.36-3.71,11.46-2.23,17,1.48,5.54,5.07,10.51,10.41,13.6,5.34,3.09,11.43,3.72,16.95,2.24,5.52-1.48,10.48-5.08,13.56-10.44,3.08-5.36,3.71-11.46,2.23-17Z" fill="#e53012"/><path d="m18.11,1.43l.02.06c.02.06,5.66,22.71-16.51,28.67l-.38-1.44C21.99,23.13,16.7,1.9,16.68,1.84l.72-.18.7-.23h0Z" fill="#e53012"/><path d="m46.44,19.07c-.06.02-21.05,6.01-15.48,26.86l-1.44.38c-5.95-22.27,16.43-28.66,16.49-28.67l.42,1.43Z" fill="#e53012"/><path d="m4.22,11.69l39.94,23.13-.74,1.29L3.49,12.98l.74-1.29Z" fill="#e53012"/><path d="m36.01,4.22L12.93,44.31l-1.29-.74L34.72,3.48l1.29.74Z" fill="#e53012"/></g><path d="m16.94,288.03v-118.08c0-84.45,1.64-107.65,6.88-107.65s6.88,23.13,6.88,107.65v118.08c0,84.45-1.64,107.65-6.88,107.65s-6.88-23.13-6.88-107.65Zm7.85,1.85v-121.28c0-15.47-.32-20.86-.97-20.86s-.97,5.46-.97,20.86v121.28c0,15.47.32,20.86.97,20.86s.97-5.46.97-20.86h0Z" fill="#fff"/></g></svg>