<?xml version="1.0" encoding="UTF-8"?><svg id="Layer_1" xmlns="http://www.w3.org/2000/svg" viewBox="0 0 529.62 55.8"><path d="m372.32,35.67v-18.66c0-13.35,18.79-17.01,78.65-17.01s78.65,3.66,78.65,17.01v18.66c0,13.35-18.79,17.01-78.65,17.01s-78.65-3.66-78.65-17.01Zm89.74.29v-19.17c0-2.44-3.68-3.3-11.09-3.3s-11.09.86-11.09,3.3v19.17c0,2.44,3.68,3.3,11.09,3.3s11.09-.86,11.09-3.3Z" fill="#fff"/><g><path d="m.06,10.43C.06,7.3.06,4.86,0,2.62h18.49c9.98,0,13.38,2.82,13.38,11.01v.06c0,5.57-1.66,9.41-7.3,10.81,6.08,1.54,7.74,4.67,7.74,11.01v.19c0,9.54-3.2,12.35-13.76,12.35H0c.06-2.37.06-4.99.06-8.32V10.43Zm13.69,2.43v7.23h2.05c1.54,0,2.3-.77,2.3-2.94v-1.34c0-2.18-.77-2.94-2.3-2.94h-2.05Zm0,17.21v7.74h2.56c1.54,0,2.3-.77,2.3-2.94v-1.86c0-2.18-.77-2.94-2.3-2.94h-2.56Z" fill="#1d1d1b"/><path d="m34.94,10.43c0-3.14,0-5.57-.06-7.81h16.45c11.52,0,15.81,3.9,15.81,14.33v3.39c0,6.14-1.41,9.92-5.31,11.84.77,1.6,1.41,3.39,2.11,5.31,1.34,3.78,2.82,7.68,3.9,10.56h-14.46c-.58-1.73-1.34-4.35-2.18-6.98l-1.47-4.8h-1.09v3.46c0,3.39,0,5.89.06,8.32h-13.82c.06-2.37.06-4.99.06-8.32V10.43Zm13.69,3.46v11.26h2.24c1.54,0,2.3-.77,2.3-2.94v-5.38c0-2.18-.77-2.94-2.3-2.94h-2.24Z" fill="#1d1d1b"/><path d="m69.06,33.66v-16.64c0-11.9,3.9-15.17,16.32-15.17s16.32,3.26,16.32,15.17v16.64c0,11.9-3.9,15.17-16.32,15.17s-16.32-3.26-16.32-15.17Zm18.62.26v-17.09c0-2.18-.77-2.94-2.3-2.94s-2.3.77-2.3,2.94v17.09c0,2.18.77,2.94,2.3,2.94s2.3-.77,2.3-2.94Z" fill="#1d1d1b"/><path d="m103.74,33.66v-16.64c0-11.9,3.9-15.17,16.32-15.17s16.32,3.26,16.32,15.17v16.64c0,11.9-3.9,15.17-16.32,15.17s-16.32-3.26-16.32-15.17Zm18.62.26v-17.09c0-2.18-.77-2.94-2.3-2.94s-2.3.77-2.3,2.94v17.09c0,2.18.77,2.94,2.3,2.94s2.3-.77,2.3-2.94Z" fill="#1d1d1b"/><path d="m139.26,10.43c0-3.14,0-5.5-.06-7.81h13.82c-.06,2.3-.06,4.67-.06,7.81v8.77h1.22c.51-3.65.96-6.4,1.41-8.64l1.47-7.94h16.25l.06.13c-2.37,6.98-4.67,14.08-6.98,21.12,2.37,8.06,4.61,16.06,7.49,24.06l-.06.13h-16.32l-1.6-8.51c-.38-2.3-1.02-5.31-1.73-9.15h-1.22v9.34c0,3.39,0,5.82.06,8.32h-13.82c.06-2.43.06-4.99.06-8.32V10.43Z" fill="#1d1d1b"/><path d="m175.29,48.06c.06-3.2.06-6.59.06-11.71V10.18c0-3.01,0-5.31-.06-7.55h13.82c-.06,2.37-.06,4.74-.06,7.94v25.28h3.52c1.92,0,3.26,0,6.34-.06v12.29h-23.61Z" fill="#1d1d1b"/><path d="m202.75,36.67c-3.26-10.56-8-25.85-10.62-34.04h15.61l1.34,10.82c.26,2.18.64,6.4.96,10.5.26-4.1.51-8.32.7-10.5l.83-10.82h15.1c-2.56,8.25-7.17,23.61-10.24,33.73v2.43c0,4.16,0,6.91.06,9.28h-13.82c.06-2.3.06-5.12.06-9.28v-2.11Z" fill="#1d1d1b"/><path d="m228.29,39.74V10.3c0-3.07,0-5.25-.06-7.68h17.09l1.86,11.07c.96,5.89,1.98,12.35,2.69,17.41-.06-5.89-.19-14.01-.19-17.92V2.62h11.2c-.06,2.43-.06,4.48-.06,7.68v29.44c0,2.56,0,5.18.06,8.32h-17.47l-1.6-9.92c-.83-4.93-1.73-10.37-2.5-15.29.06,5.95.13,11.9.13,14.65v10.56h-11.2c.06-2.56.06-4.86.06-8.32Z" fill="#1d1d1b"/><path d="m275.84,33.85v14.4l-4.86,7.55h-7.04l1.98-5.38c.26-.77.58-1.54.9-2.37-1.41,0-2.56.06-2.88.06v-14.27h11.9Z" fill="#1d1d1b"/><path d="m294.33,39.74V10.3c0-3.07,0-5.25-.06-7.68h17.09l1.86,11.07c.96,5.89,1.98,12.35,2.69,17.41-.06-5.89-.19-14.01-.19-17.92V2.62h11.2c-.06,2.43-.06,4.48-.06,7.68v29.44c0,2.56,0,5.18.06,8.32h-17.47l-1.6-9.92c-.83-4.93-1.73-10.37-2.5-15.29.06,5.95.13,11.9.13,14.65v10.56h-11.2c.06-2.56.06-4.86.06-8.32Z" fill="#1d1d1b"/><path d="m339.07,36.67c-3.26-10.56-8-25.85-10.62-34.04h15.61l1.34,10.82c.26,2.18.64,6.4.96,10.5.26-4.1.51-8.32.7-10.5l.83-10.82h15.1c-2.56,8.25-7.17,23.61-10.24,33.73v2.43c0,4.16,0,6.91.06,9.28h-13.82c.06-2.3.06-5.12.06-9.28v-2.11Z" fill="#1d1d1b"/></g></svg>