<?xml version="1.0" encoding="UTF-8"?><svg id="Layer_1" xmlns="http://www.w3.org/2000/svg" viewBox="0 0 674.58 674.58"><text transform="translate(210.54 89.07) rotate(-21)" fill="#1d1d1b" font-family="Transducer-CondensedBlack, Transducer" font-size="65" font-weight="800"><tspan x="0" y="0">W</tspan></text><text transform="translate(264.31 69.55) rotate(-12.3)" fill="#1d1d1b" font-family="Transducer-CondensedBlack, Transducer" font-size="65" font-weight="800"><tspan x="0" y="0">E</tspan></text><text transform="translate(290.59 63.81) rotate(-6.9)" fill="#1d1d1b" font-family="Transducer-CondensedBlack, Transducer" font-size="65" font-weight="800"><tspan x="0" y="0">L</tspan></text><text transform="translate(315.32 60.54) rotate(-.98)" fill="#1d1d1b" font-family="Transducer-CondensedBlack, Transducer" font-size="65" font-weight="800"><tspan x="0" y="0">C</tspan></text><text transform="translate(348.29 59.87) rotate(5.84)" fill="#1d1d1b" font-family="Transducer-CondensedBlack, Transducer" font-size="65" font-weight="800"><tspan x="0" y="0">O</tspan></text><text transform="translate(381.87 62.53) rotate(14.56)" fill="#1d1d1b" font-family="Transducer-CondensedBlack, Transducer" font-size="65" font-weight="800"><tspan x="0" y="0">M</tspan></text><text transform="translate(430.68 75.97) rotate(22.58)" fill="#1d1d1b" font-family="Transducer-CondensedBlack, Transducer" font-size="65" font-weight="800"><tspan x="0" y="0">E</tspan></text><text transform="translate(455.64 86.56) rotate(26.93)" fill="#1d1d1b" font-family="Transducer-CondensedBlack, Transducer" font-size="65" font-weight="800"><tspan x="0" y="0"> </tspan></text><text transform="translate(468.93 92.94) rotate(31.52)" fill="#1d1d1b" font-family="Transducer-CondensedBlack, Transducer" font-size="65" font-weight="800"><tspan x="0" y="0">T</tspan></text><text transform="translate(494.01 108.08) rotate(38.04)" fill="#1d1d1b" font-family="Transducer-CondensedBlack, Transducer" font-size="65" font-weight="800"><tspan x="0" y="0">O</tspan></text><text transform="translate(520.76 129.5) rotate(43.07)" fill="#1d1d1b" font-family="Transducer-CondensedBlack, Transducer" font-size="65" font-weight="800"><tspan x="0" y="0"> </tspan></text><text transform="translate(532.21 138.18) rotate(50.43)" fill="#1d1d1b" font-family="Transducer-CondensedBlack, Transducer" font-size="65" font-weight="800"><tspan x="0" y="0">W</tspan></text><text transform="translate(567.6 182.19) rotate(59.62)" fill="#1d1d1b" font-family="Transducer-CondensedBlack, Transducer" font-size="65" font-weight="800"><tspan x="0" y="0">O</tspan></text><text transform="translate(584.82 211.4) rotate(66.65)" fill="#1d1d1b" font-family="Transducer-CondensedBlack, Transducer" font-size="65" font-weight="800"><tspan x="0" y="0">O</tspan></text><text transform="translate(598.31 242.52) rotate(73.6)" fill="#1d1d1b" font-family="Transducer-CondensedBlack, Transducer" font-size="65" font-weight="800"><tspan x="0" y="0">J</tspan></text><text transform="translate(607.34 274.49) rotate(78.58)" fill="#1d1d1b" font-family="Transducer-CondensedBlack, Transducer" font-size="65" font-weight="800"><tspan x="0" y="0"> </tspan></text><text transform="translate(610.31 289.2) rotate(81.6)" fill="#1d1d1b" font-family="Transducer-CondensedBlack, Transducer" font-size="65" font-weight="800"><tspan x="0" y="0">:</tspan></text><text transform="translate(612.81 302.74) rotate(86.58)" fill="#1d1d1b" font-family="Transducer-CondensedBlack, Transducer" font-size="65" font-weight="800"><tspan x="0" y="0">D</tspan></text><text transform="translate(614.48 337.34) rotate(91.59)" fill="#1d1d1b" font-family="Transducer-CondensedBlack, Transducer" font-size="65" font-weight="800"><tspan x="0" y="0"> </tspan></text><text transform="translate(615.56 351.69) rotate(98.96)" fill="#1d1d1b" font-family="Transducer-CondensedBlack, Transducer" font-size="65" font-weight="800"><tspan x="0" y="0">W</tspan></text><text transform="translate(605.63 408.02) rotate(107.64)" fill="#1d1d1b" font-family="Transducer-CondensedBlack, Transducer" font-size="65" font-weight="800"><tspan x="0" y="0">E</tspan></text><text transform="translate(597.48 433.66) rotate(113.07)" fill="#1d1d1b" font-family="Transducer-CondensedBlack, Transducer" font-size="65" font-weight="800"><tspan x="0" y="0">L</tspan></text><text transform="translate(588 456.66) rotate(119.05)" fill="#1d1d1b" font-family="Transducer-CondensedBlack, Transducer" font-size="65" font-weight="800"><tspan x="0" y="0">C</tspan></text><text transform="translate(572.06 485.57) rotate(125.96)" fill="#1d1d1b" font-family="Transducer-CondensedBlack, Transducer" font-size="65" font-weight="800"><tspan x="0" y="0">O</tspan></text><text transform="translate(552.9 513.27) rotate(134.6)" fill="#1d1d1b" font-family="Transducer-CondensedBlack, Transducer" font-size="65" font-weight="800"><tspan x="0" y="0">M</tspan></text><text transform="translate(516.82 548.81) rotate(142.52)" fill="#1d1d1b" font-family="Transducer-CondensedBlack, Transducer" font-size="65" font-weight="800"><tspan x="0" y="0">E</tspan></text><text transform="translate(495.18 565.15) rotate(146.84)" fill="#1d1d1b" font-family="Transducer-CondensedBlack, Transducer" font-size="65" font-weight="800"><tspan x="0" y="0"> </tspan></text><text transform="translate(483.03 573.49) rotate(151.43)" fill="#1d1d1b" font-family="Transducer-CondensedBlack, Transducer" font-size="65" font-weight="800"><tspan x="0" y="0">T</tspan></text><text transform="translate(457.38 587.69) rotate(158)" fill="#1d1d1b" font-family="Transducer-CondensedBlack, Transducer" font-size="65" font-weight="800"><tspan x="0" y="0">O</tspan></text><text transform="translate(425.49 600.15) rotate(163.08)" fill="#1d1d1b" font-family="Transducer-CondensedBlack, Transducer" font-size="65" font-weight="800"><tspan x="0" y="0"> </tspan></text><text transform="translate(412.26 605.74) rotate(170.53)" fill="#1d1d1b" font-family="Transducer-CondensedBlack, Transducer" font-size="65" font-weight="800"><tspan x="0" y="0">W</tspan></text><text transform="translate(356.36 614.08) rotate(179.07)" fill="#1d1d1b" font-family="Transducer-CondensedBlack, Transducer" font-size="65" font-weight="800"><tspan x="0" y="0">O</tspan></text><text transform="translate(322.48 614.54) rotate(-173.38)" fill="#1d1d1b" font-family="Transducer-CondensedBlack, Transducer" font-size="65" font-weight="800"><tspan x="0" y="0">O</tspan></text><text transform="translate(288.8 610.68) rotate(-166.46)" fill="#1d1d1b" font-family="Transducer-CondensedBlack, Transducer" font-size="65" font-weight="800"><tspan x="0" y="0">J</tspan></text><text transform="translate(256.57 602.54) rotate(-161.47)" fill="#1d1d1b" font-family="Transducer-CondensedBlack, Transducer" font-size="65" font-weight="800"><tspan x="0" y="0"> </tspan></text><text transform="translate(242.35 597.78) rotate(-158.44)" fill="#1d1d1b" font-family="Transducer-CondensedBlack, Transducer" font-size="65" font-weight="800"><tspan x="0" y="0">:</tspan></text><text transform="translate(229.39 593.2) rotate(-153.42)" fill="#1d1d1b" font-family="Transducer-CondensedBlack, Transducer" font-size="65" font-weight="800"><tspan x="0" y="0">D</tspan></text><text transform="translate(198.6 577.34) rotate(-148.32)" fill="#1d1d1b" font-family="Transducer-CondensedBlack, Transducer" font-size="65" font-weight="800"><tspan x="0" y="0"> </tspan></text><text transform="translate(185.65 571.09) rotate(-140.93)" fill="#1d1d1b" font-family="Transducer-CondensedBlack, Transducer" font-size="65" font-weight="800"><tspan x="0" y="0">W</tspan></text><text transform="translate(141.88 534.23) rotate(-132.35)" fill="#1d1d1b" font-family="Transducer-CondensedBlack, Transducer" font-size="65" font-weight="800"><tspan x="0" y="0">E</tspan></text><text transform="translate(123.74 514.33) rotate(-126.98)" fill="#1d1d1b" font-family="Transducer-CondensedBlack, Transducer" font-size="65" font-weight="800"><tspan x="0" y="0">L</tspan></text><text transform="translate(108.55 494.64) rotate(-121.04)" fill="#1d1d1b" font-family="Transducer-CondensedBlack, Transducer" font-size="65" font-weight="800"><tspan x="0" y="0">C</tspan></text><text transform="translate(91.44 466.41) rotate(-114.1)" fill="#1d1d1b" font-family="Transducer-CondensedBlack, Transducer" font-size="65" font-weight="800"><tspan x="0" y="0">O</tspan></text><text transform="translate(76.98 435.99) rotate(-105.35)" fill="#1d1d1b" font-family="Transducer-CondensedBlack, Transducer" font-size="65" font-weight="800"><tspan x="0" y="0">M</tspan></text><text transform="translate(64.29 386.98) rotate(-97.36)" fill="#1d1d1b" font-family="Transducer-CondensedBlack, Transducer" font-size="65" font-weight="800"><tspan x="0" y="0">E</tspan></text><text transform="translate(61.02 360.06) rotate(-93.05)" fill="#1d1d1b" font-family="Transducer-CondensedBlack, Transducer" font-size="65" font-weight="800"><tspan x="0" y="0"> </tspan></text><text transform="translate(59.91 345.35) rotate(-88.54)" fill="#1d1d1b" font-family="Transducer-CondensedBlack, Transducer" font-size="65" font-weight="800"><tspan x="0" y="0">T</tspan></text><text transform="translate(60.45 316.04) rotate(-82.04)" fill="#1d1d1b" font-family="Transducer-CondensedBlack, Transducer" font-size="65" font-weight="800"><tspan x="0" y="0">O</tspan></text><text transform="translate(65.58 282.18) rotate(-76.97)" fill="#1d1d1b" font-family="Transducer-CondensedBlack, Transducer" font-size="65" font-weight="800"><tspan x="0" y="0"> </tspan></text><text transform="translate(67.34 267.91) rotate(-69.51)" fill="#1d1d1b" font-family="Transducer-CondensedBlack, Transducer" font-size="65" font-weight="800"><tspan x="0" y="0">W</tspan></text><text transform="translate(87.81 215.3) rotate(-60.25)" fill="#1d1d1b" font-family="Transducer-CondensedBlack, Transducer" font-size="65" font-weight="800"><tspan x="0" y="0">O</tspan></text><text transform="translate(104.58 185.81) rotate(-53.26)" fill="#1d1d1b" font-family="Transducer-CondensedBlack, Transducer" font-size="65" font-weight="800"><tspan x="0" y="0">O</tspan></text><text transform="translate(124.84 158.59) rotate(-46.39)" fill="#1d1d1b" font-family="Transducer-CondensedBlack, Transducer" font-size="65" font-weight="800"><tspan x="0" y="0">J</tspan></text><text transform="translate(148.01 134.79) rotate(-41.48)" fill="#1d1d1b" font-family="Transducer-CondensedBlack, Transducer" font-size="65" font-weight="800"><tspan x="0" y="0"> </tspan></text><text transform="translate(159.25 124.84) rotate(-38.48)" fill="#1d1d1b" font-family="Transducer-CondensedBlack, Transducer" font-size="65" font-weight="800"><tspan x="0" y="0">:</tspan></text><text transform="translate(169.71 115.9) rotate(-33.5)" fill="#1d1d1b" font-family="Transducer-CondensedBlack, Transducer" font-size="65" font-weight="800"><tspan x="0" y="0">D</tspan></text><circle cx="340.73" cy="334.24" r="265.63" fill="none" stroke="#1d1d1b" stroke-miterlimit="10"/><circle cx="337.29" cy="337.29" r="336.79" fill="none" stroke="#1d1d1b" stroke-miterlimit="10"/></svg>