<svg width="118" height="125" viewBox="0 0 118 125" fill="none" xmlns="http://www.w3.org/2000/svg">
<path d="M9.67835 3.42887C9.36335 2.76536 9.84723 2 10.5817 2H69.3654C69.7528 2 70.1053 2.22371 70.2702 2.5742L93.3106 51.535C93.6272 52.2079 93.1248 52.9787 92.3814 52.9605L33.1151 51.515C32.7379 51.5058 32.398 51.285 32.2361 50.9442L9.67835 3.42887Z" fill="white"/>
<path d="M32.9725 14.3039C32.6575 13.6404 33.1413 12.875 33.8758 12.875H92.6595C93.0469 12.875 93.3994 13.0987 93.5643 13.4492L116.605 62.41C116.921 63.0829 116.419 63.8537 115.676 63.8355L56.4092 62.39C56.032 62.3808 55.6921 62.16 55.5302 61.8192L32.9725 14.3039Z" fill="white"/>
<path d="M102.626 8.28571L103.848 3.74013H102.867L102.123 6.87237H102.11L101.333 3.74013H100.397L99.6079 6.83418H99.5952L98.8758 3.74013H97.8763L99.0795 8.28571H100.092L100.849 5.19166H100.862L101.632 8.28571H102.626Z" fill="white"/>
<circle cx="101" cy="6" r="5.57143" stroke="white" stroke-width="0.857143"/>
<path d="M0.685121 3.37507C0.367483 2.71132 0.851313 1.94341 1.58715 1.94341L4.38475 1.94339C4.77093 1.94339 5.12259 2.16574 5.28817 2.51462L61.3655 120.669C61.6804 121.332 61.1965 122.097 60.4621 122.097L58.1301 122.097C57.745 122.097 57.3942 121.876 57.228 121.529L0.685121 3.37507Z" fill="white"/>
</svg>
