<?xml version="1.0" encoding="UTF-8"?><svg id="Layer_1" xmlns="http://www.w3.org/2000/svg" viewBox="0 0 47.07 394.27"><path d="m16.82,286.62v-118.08c0-84.45,1.64-107.65,6.88-107.65s6.88,23.13,6.88,107.65v118.08c0,84.45-1.64,107.65-6.88,107.65s-6.88-23.13-6.88-107.65Zm7.85,1.85v-121.28c0-15.47-.32-20.86-.97-20.86s-.97,5.46-.97,20.86v121.28c0,15.47.32,20.86.97,20.86s.97-5.46.97-20.86Z" fill="#fff"/><g><path d="m22.17,47.06c-.32-.04-.63-.09-.95-.11-1.79-.17-3.55-.55-5.25-1.14-1.98-.66-3.87-1.59-5.6-2.76-1.37-.92-2.64-1.99-3.78-3.19-2-2.07-3.6-4.49-4.74-7.14-.88-2.06-1.45-4.23-1.71-6.45-.15-1.42-.19-2.84-.1-4.26.07-1.18.23-2.36.49-3.51.38-1.69.94-3.34,1.67-4.92.96-2.03,2.2-3.92,3.69-5.6,1.82-2.07,3.98-3.81,6.4-5.12,1.4-.76,2.87-1.37,4.39-1.84,1.62-.49,3.29-.81,4.98-.93,2.05-.17,4.11-.07,6.13.3,1.89.35,3.73.92,5.48,1.71,1.36.62,2.65,1.37,3.87,2.23,1.09.77,2.12,1.64,3.06,2.59,2.14,2.13,3.85,4.67,5.02,7.45.86,2.01,1.42,4.14,1.66,6.32.06.57.09,1.19.14,1.78h0c0,.06.02.12.05.18v1.79c-.02.08-.04.16-.05.24,0,.26,0,.52-.04.78-.1,1.37-.33,2.72-.67,4.05-.58,2.23-1.49,4.36-2.69,6.33-1.07,1.73-2.36,3.32-3.83,4.73-1.68,1.6-3.58,2.95-5.65,3.99-1.93,1-3.99,1.7-6.13,2.08-.64.11-1.3.19-1.95.28l-.95.14h-2.95ZM1.26,23.53c0,5.8,2.25,11.37,6.29,15.53,4.04,4.16,9.55,6.58,15.34,6.74,3.12.13,6.24-.42,9.13-1.61,2.89-1.19,5.49-2.99,7.62-5.28,3.98-4.04,6.2-9.49,6.18-15.15.07-3.01-.5-5.99-1.65-8.77-1.15-2.78-2.88-5.28-5.06-7.35-2.12-2.13-4.67-3.79-7.47-4.88-2.8-1.09-5.8-1.59-8.8-1.47-5.79.18-11.27,2.6-15.3,6.75C3.51,12.18,1.26,17.74,1.26,23.53h0Z" fill="#010101"/><path d="m36.1,24.9l-.52.27c-.51.28-1.16.1-1.45-.41-.14-.24-.17-.53-.09-.8.08-.27.26-.49.51-.62.72-.39,1.46-.75,2.19-1.11.35-.19.72-.36,1.1-.49.48-.11.97.16,1.14.63.19.48,0,1.03-.46,1.29-.18.11-.37.2-.57.28-.14.06-.16.15-.15.29.03.77.1,1.54.07,2.31-.06,1.39-.32,2.77-.77,4.08-.62,1.83-1.59,3.52-2.85,4.98-1.56,1.82-3.57,3.21-5.82,4.04-1.75.66-3.61.94-5.47.84-2.13-.11-4.2-.71-6.06-1.75-1.74-.97-3.26-2.3-4.46-3.9-1.39-1.84-2.33-3.99-2.74-6.26-.18-.98-.26-1.97-.26-2.96,0-.47.05-.95.08-1.42.02-.11-.04-.21-.14-.24-.15-.07-.3-.16-.45-.23-.26-.12-.46-.33-.56-.6s-.08-.56.04-.81c.25-.5.85-.72,1.36-.48.42.18.82.4,1.23.61.61.3,1.22.57,1.82.92.29.15.49.43.55.75s-.05.65-.28.89c-.33.35-.86.43-1.28.2l-.57-.28v1.36c.04,1.23.26,2.45.64,3.62.89,2.78,2.7,5.17,5.12,6.79,1.23.82,2.61,1.4,4.05,1.71,2,.46,4.09.39,6.05-.2,1.78-.54,3.41-1.48,4.77-2.74,1.86-1.69,3.18-3.89,3.79-6.32.19-.85.32-1.72.38-2.59.04-.55.05-1.09.03-1.64h0Z" fill="#010101"/><path d="m16.4,14.75c-.03-1.37.13-2.73.49-3.99.14-.5.35-.96.6-1.34.24-.41.59-.63.95-.61.36.02.7.29.91.73.47.83.77,1.84.88,2.91.26,1.81.19,3.7-.2,5.46-.15.76-.43,1.45-.81,2-.22.35-.54.54-.86.54-.32,0-.63-.21-.85-.57-.4-.62-.69-1.39-.84-2.23-.2-.94-.29-1.91-.28-2.9h0Z" fill="#010101"/><path d="m26.75,14.75c-.03-1.37.13-2.73.49-3.99.14-.5.35-.96.6-1.34.24-.41.59-.63.95-.61.36.02.7.29.91.73.47.83.77,1.84.88,2.91.26,1.81.19,3.7-.2,5.46-.15.76-.43,1.45-.81,2-.22.35-.54.54-.86.54-.32,0-.63-.21-.85-.57-.4-.62-.69-1.39-.84-2.23-.2-.94-.29-1.91-.28-2.9h0Z" fill="#010101"/></g></svg>