<?xml version="1.0" encoding="UTF-8" ?>
<svg
  id="Layer_1"
  xmlns="http://www.w3.org/2000/svg"
  viewBox="0 0 1363.04 55.35"
><path
    d="M41.85,54.3H16.87C13.35,42.15,3.52,11.25,0,1.05H19.65l6.15,23.77c1.2,4.8,2.48,9.6,3.52,13.88h1.8c1.35-4.8,2.92-10.12,4.42-15.45L42,1.05h24.45l6.82,22.95c1.5,5.03,3,10.12,4.35,14.7h2.4c1.05-4.65,2.25-9.9,3.45-15.08L88.8,1.05h19.05c-3.45,10.2-13.42,41.1-17.1,53.25h-24.97l-5.4-19.2c-1.65-5.92-3.38-12.22-5.02-18.15h-2.48c-1.72,6.15-3.67,12.75-5.47,18.9l-5.55,18.45Z"
  /><path
    d="M111.97,10.05c0-3.6,0-6.38-.08-9h59.4V15.22c-9.75-.08-24.37-.08-34.87-.08h-6.6v5.55h38.02v13.27c-18.75-.07-20.17-.07-28.42-.07h-9.6v6.3h7.35c10.5,0,24,0,35.02-.07v14.17h-60.3c.08-3.22,.08-6.97,.08-12V10.05Z"
  /><path
    d="M178.8,54.3c.07-3.3,.07-6.82,.07-11.77V10.12c0-3.67,0-6.38-.07-9.08h18c-.08,2.7-.08,5.4-.08,9v28.42h13.35c9.67,0,21.15,0,27.15-.08v15.9h-58.42Z"
  /><path
    d="M240,28.87v-2.4c0-20.02,6.67-26.47,35.47-26.47s35.02,4.28,34.72,23.62l-17.77,.3c0-5.92-1.05-8.4-17.25-8.4-15.22,0-16.8,2.1-16.8,12v.3c0,9.82,1.88,12,17.1,12,15.97,0,17.1-2.7,17.1-8.4l17.77,.3c.3,18.82-6,23.62-34.87,23.62s-35.47-6.52-35.47-26.47Z"
  /><path
    d="M315.3,28.87v-2.4c0-20.02,6.67-26.47,35.62-26.47s35.62,6.45,35.62,26.47v2.4c0,19.95-6.6,26.47-35.62,26.47s-35.62-6.52-35.62-26.47Zm52.87-1.05v-.3c0-9.83-1.8-11.92-17.25-11.92s-17.25,2.1-17.25,11.92v.3c0,9.82,1.88,12,17.25,12s17.25-2.17,17.25-12Z"
  /><path
    d="M393.37,42.75V10.2c0-3.67,0-6.45-.07-9.15h33l6.45,20.55c1.65,5.17,3.3,10.8,4.72,16.05,1.42-5.17,3-10.72,4.58-15.82l6.37-20.77h32.1c-.07,2.78-.07,5.62-.07,9.38V42.9c0,4.72,0,8.1,.07,11.4h-18c.08-5.92,.08-8.62,.08-14.62,0-3.53,.08-14.47,.15-23.17h-2.78c-1.88,5.55-4.12,12.07-6.22,18.3l-6.6,19.5h-20.92l-6.82-19.95c-2.1-6.15-4.35-12.45-6.3-17.85h-2.7c0,7.87,.08,18.22,.08,23.17,0,5.25,0,8.62,.08,14.62h-17.25c.07-3.3,.07-6.67,.07-11.55Z"
  /><path
    d="M489,10.05c0-3.6,0-6.38-.07-9h59.4V15.22c-9.75-.08-24.37-.08-34.87-.08h-6.6v5.55h38.02v13.27c-18.75-.07-20.17-.07-28.42-.07h-9.6v6.3h7.35c10.5,0,24,0,35.02-.07v14.17h-60.3c.07-3.22,.07-6.97,.07-12V10.05Z"
  /><path
    d="M606.67,16.88h-5.1c-3,0-15.15,0-19.65,.07V1.05h67.35v15.9c-4.5-.07-9.9-.07-12.9-.07h-11.85v25.42c0,4.95,0,8.62,.08,12h-18c.08-3.3,.08-6.97,.08-12V16.88Z"
  /><path
    d="M652.12,28.87v-2.4c0-20.02,6.67-26.47,35.62-26.47s35.62,6.45,35.62,26.47v2.4c0,19.95-6.6,26.47-35.62,26.47s-35.62-6.52-35.62-26.47Zm52.87-1.05v-.3c0-9.83-1.8-11.92-17.25-11.92s-17.25,2.1-17.25,11.92v.3c0,9.82,1.88,12,17.25,12s17.25-2.17,17.25-12Z"
  /><path
    d="M797.62,54.3h-24.97c-3.53-12.15-13.35-43.05-16.88-53.25h19.65l6.15,23.77c1.2,4.8,2.47,9.6,3.52,13.88h1.8c1.35-4.8,2.92-10.12,4.42-15.45l6.45-22.2h24.45l6.83,22.95c1.5,5.03,3,10.12,4.35,14.7h2.4c1.05-4.65,2.25-9.9,3.45-15.08l5.33-22.57h19.05c-3.45,10.2-13.42,41.1-17.1,53.25h-24.97l-5.4-19.2c-1.65-5.92-3.38-12.22-5.03-18.15h-2.47c-1.72,6.15-3.67,12.75-5.47,18.9l-5.55,18.45Z"
  /><path
    d="M862.65,28.87v-2.4c0-20.02,6.67-26.47,35.62-26.47s35.62,6.45,35.62,26.47v2.4c0,19.95-6.6,26.47-35.62,26.47s-35.62-6.52-35.62-26.47Zm52.87-1.05v-.3c0-9.83-1.8-11.92-17.25-11.92s-17.25,2.1-17.25,11.92v.3c0,9.82,1.88,12,17.25,12s17.25-2.17,17.25-12Z"
  /><path
    d="M938.99,28.87v-2.4c0-20.02,6.67-26.47,35.62-26.47s35.62,6.45,35.62,26.47v2.4c0,19.95-6.6,26.47-35.62,26.47s-35.62-6.52-35.62-26.47Zm52.87-1.05v-.3c0-9.83-1.8-11.92-17.25-11.92s-17.25,2.1-17.25,11.92v.3c0,9.82,1.88,12,17.25,12s17.25-2.17,17.25-12Z"
  /><path
    d="M1078.42,10.2v5.55c0,4.2,.08,9,.08,15.07,0,18.52-5.1,24.52-31.8,24.52s-31.8-6-31.8-25.35v-1.42l17.92-.15v2.25c0,7.35,2.02,9.15,13.87,9.15s13.88-1.8,13.88-9.15V10.12c0-3.53,0-5.92-.08-9.08h18c-.08,2.48-.08,5.55-.08,9.15Z"
  /><path
    d="M1114.64,28.87v-2.4c0-20.02,6.67-26.47,35.47-26.47s35.02,4.28,34.72,23.62l-17.77,.3c0-5.92-1.05-8.4-17.25-8.4-15.22,0-16.8,2.1-16.8,12v.3c0,9.82,1.88,12,17.1,12,15.97,0,17.1-2.7,17.1-8.4l17.77,.3c.3,18.82-6,23.62-34.87,23.62s-35.47-6.52-35.47-26.47Z"
  /><path
    d="M1191.67,42.3V10.05c0-3.6,0-6.3-.07-9h18c-.08,2.78-.08,5.25-.08,9v9.22h32.85V10.05c0-3.6,0-6.3-.08-9h18c-.08,2.78-.08,5.25-.08,9V42.3c0,4.95,0,8.62,.08,12h-18c.08-3.3,.08-6.97,.08-12v-7.72h-32.85v7.72c0,4.95,0,8.62,.08,12h-18c.07-3.3,.07-6.97,.07-12Z"
  /><path
    d="M1267.04,28.87v-2.4c0-20.02,6.67-26.47,35.62-26.47s35.62,6.45,35.62,26.47v2.4c0,19.95-6.6,26.47-35.62,26.47s-35.62-6.52-35.62-26.47Zm52.87-1.05v-.3c0-9.83-1.8-11.92-17.25-11.92s-17.25,2.1-17.25,11.92v.3c0,9.82,1.88,12,17.25,12s17.25-2.17,17.25-12Z"
  /><path
    d="M1345.12,10.05c0-3.6,0-6.3-.07-9h18c-.08,2.78-.08,5.25-.08,9V42.3c0,4.95,0,8.62,.08,12h-18c.07-3.3,.07-6.97,.07-12V10.05Z"
  /></svg>
