<?xml version="1.0" encoding="UTF-8"?><svg id="Layer_1" xmlns="http://www.w3.org/2000/svg" viewBox="0 0 497.27 46.97"><path d="M25.93,46.2H5.34C4.03,34.37,1.43,12.67,0,.77H14.77l.5,16.13c.19,5.63,.31,11.52,.62,17.41h.99c.5-5.82,.99-11.65,1.43-17.21L19.67,.77h17.62l1.49,15.93c.5,5.63,1.05,11.58,1.61,17.6h.81c.25-6.02,.37-12.03,.56-17.73l.43-15.81h14.27c-1.49,11.9-4.28,33.53-5.71,45.44H30.34l-.81-12.22c-.31-5.31-.68-12.03-1.18-19.07-.5,7.04-.99,13.76-1.43,19.13l-.99,12.16Z" fill="#1d1d1b"/><path d="M58.13,8.58c0-3.14,0-5.57-.06-7.81h23.45V12.22c-3.72-.06-5.89-.06-9-.06h-1.12v5.7h9v10.69c-3.1-.06-6.02-.06-8.5-.06h-.5v6.34h1.92c2.48,0,3.97,0,8.93-.06v11.46h-24.2c.06-2.37,.06-4.99,.06-8.32V8.58Z" fill="#1d1d1b"/><path d="M84.75,46.2c.06-3.2,.06-6.59,.06-11.71V8.32c0-3.01,0-5.31-.06-7.55h13.4c-.06,2.37-.06,4.74-.06,7.94v25.28h3.41c1.86,0,3.16,0,6.14-.06v12.29h-22.89Z" fill="#1d1d1b"/><path d="M108.82,31.81V15.17c0-11.9,3.78-15.17,15.51-15.17s15.26,3.26,15.26,15.17v4.86l-13.09,.26v-5.44c0-2.18-.68-2.94-1.99-2.94s-2.11,.77-2.11,2.94v17.34c0,2.18,.74,2.94,2.11,2.94,1.49,0,2.11-.77,2.11-2.94v-5.5l13.09,.26v4.8c0,11.97-4.09,15.23-15.39,15.23s-15.51-3.26-15.51-15.17Z" fill="#1d1d1b"/><path d="M141.58,31.81V15.17c0-11.9,3.78-15.17,15.82-15.17s15.82,3.26,15.82,15.17V31.81c0,11.9-3.78,15.17-15.82,15.17s-15.82-3.26-15.82-15.17Zm18.05,.26V14.98c0-2.18-.74-2.94-2.23-2.94s-2.23,.77-2.23,2.94v17.09c0,2.18,.74,2.94,2.23,2.94s2.23-.77,2.23-2.94Z" fill="#1d1d1b"/><path d="M176.02,38.08V8.45c0-3.07,0-5.38-.06-7.68h21.84l1.05,12.03c.43,5.25,.74,11.2,.93,16.64,.19-5.5,.43-11.46,.87-16.77l.99-11.9h20.66c-.06,2.3-.06,4.67-.06,7.81v29.37c0,3.33,0,5.82,.06,8.26h-12.97v-6.72c0-4.35,.31-16.06,.5-25.66h-.62c-.68,6.27-1.49,13.5-2.3,19.65l-1.61,12.73h-12.84l-1.55-12.86c-.74-6.08-1.55-13.25-2.3-19.52h-.81c.25,9.09,.5,20.35,.5,25.66v6.72h-12.35c.06-2.43,.06-4.86,.06-8.13Z" fill="#1d1d1b"/><path d="M225.84,8.58c0-3.14,0-5.57-.06-7.81h23.45V12.22c-3.72-.06-5.89-.06-9-.06h-1.12v5.7h9v10.69c-3.1-.06-6.02-.06-8.5-.06h-.5v6.34h1.92c2.48,0,3.97,0,8.93-.06v11.46h-24.2c.06-2.37,.06-4.99,.06-8.32V8.58Z" fill="#1d1d1b"/><path d="M273.61,12.99h-7.51V.77h28.17V12.99h-7.38v24.89c0,3.39,0,5.82,.06,8.32h-13.4c.06-2.43,.06-4.99,.06-8.32V12.99Z" fill="#1d1d1b"/><path d="M295.76,31.81V15.17c0-11.9,3.78-15.17,15.82-15.17s15.82,3.26,15.82,15.17V31.81c0,11.9-3.78,15.17-15.82,15.17s-15.82-3.26-15.82-15.17Zm18.05,.26V14.98c0-2.18-.74-2.94-2.23-2.94s-2.23,.77-2.23,2.94v17.09c0,2.18,.74,2.94,2.23,2.94s2.23-.77,2.23-2.94Z" fill="#1d1d1b"/><path d="M369.09,46.2h-20.6c-1.3-11.84-3.91-33.53-5.34-45.44h14.76l.5,16.13c.19,5.63,.31,11.52,.62,17.41h.99c.5-5.82,.99-11.65,1.43-17.21l1.36-16.32h17.62l1.49,15.93c.5,5.63,1.05,11.58,1.61,17.6h.81c.25-6.02,.37-12.03,.56-17.73l.43-15.81h14.27c-1.49,11.9-4.28,33.53-5.71,45.44h-20.41l-.81-12.22c-.31-5.31-.68-12.03-1.18-19.07-.5,7.04-.99,13.76-1.43,19.13l-.99,12.16Z" fill="#1d1d1b"/><path d="M399.87,31.81V15.17c0-11.9,3.78-15.17,15.82-15.17s15.82,3.26,15.82,15.17V31.81c0,11.9-3.78,15.17-15.82,15.17s-15.82-3.26-15.82-15.17Zm18.05,.26V14.98c0-2.18-.74-2.94-2.23-2.94s-2.23,.77-2.23,2.94v17.09c0,2.18,.74,2.94,2.23,2.94s2.23-.77,2.23-2.94Z" fill="#1d1d1b"/><path d="M433.49,31.81V15.17c0-11.9,3.78-15.17,15.82-15.17s15.82,3.26,15.82,15.17V31.81c0,11.9-3.78,15.17-15.82,15.17s-15.82-3.26-15.82-15.17Zm18.05,.26V14.98c0-2.18-.74-2.94-2.23-2.94s-2.23,.77-2.23,2.94v17.09c0,2.18,.74,2.94,2.23,2.94s2.23-.77,2.23-2.94Z" fill="#1d1d1b"/><path d="M497.21,8.77v4.54c0,3.58,.06,7.23,.06,18.49,0,11.9-3.35,15.17-15.2,15.17s-14.83-3.26-14.83-15.17v-7.55l12.97-.13v7.94c0,2.18,.74,2.94,1.86,2.94s1.86-.77,1.86-2.94V8.45c0-3.14,0-5.76-.06-7.68h13.4c-.06,2.18-.06,4.8-.06,8Z" fill="#1d1d1b"/></svg>