<?xml version="1.0" encoding="UTF-8"?><svg id="Layer_1" xmlns="http://www.w3.org/2000/svg" viewBox="0 0 572.52 47.4"><path d="m25.93,46.2H5.34C4.03,34.37,1.43,12.67,0,.77h14.77l.5,16.13c.19,5.63.31,11.52.62,17.41h.99c.5-5.82.99-11.65,1.43-17.21L19.67.77h17.62l1.49,15.93c.5,5.63,1.05,11.58,1.61,17.6h.81c.25-6.02.37-12.03.56-17.73l.43-15.81h14.27c-1.49,11.9-4.28,33.53-5.71,45.44h-20.41l-.81-12.22c-.31-5.31-.68-12.03-1.18-19.07-.5,7.04-.99,13.76-1.43,19.13l-.99,12.16Z" fill="#1d1e1b"/><path d="m58.13,8.58c0-3.14,0-5.57-.06-7.81h23.45v11.45c-3.72-.06-5.89-.06-9-.06h-1.12v5.7h9v10.69c-3.1-.06-6.02-.06-8.5-.06h-.5v6.34h1.92c2.48,0,3.97,0,8.93-.06v11.46h-24.2c.06-2.37.06-4.99.06-8.32V8.58h.02Z" fill="#1d1e1b"/><path d="m84.75,46.2c.06-3.2.06-6.59.06-11.71V8.32c0-3.01,0-5.31-.06-7.55h13.4c-.06,2.37-.06,4.74-.06,7.94v25.28h3.41c1.86,0,3.16,0,6.14-.06v12.29h-22.89v-.02Z" fill="#1d1e1b"/><path d="m108.82,31.81V15.17c0-11.9,3.78-15.17,15.51-15.17s15.26,3.26,15.26,15.17v4.86l-13.09.26v-5.44c0-2.18-.68-2.94-1.99-2.94s-2.11.77-2.11,2.94v17.34c0,2.18.74,2.94,2.11,2.94,1.49,0,2.11-.77,2.11-2.94v-5.5l13.09.26v4.8c0,11.97-4.09,15.23-15.39,15.23s-15.51-3.26-15.51-15.17h0Z" fill="#1d1e1b"/><path d="m141.58,31.81V15.17c0-11.9,3.78-15.17,15.82-15.17s15.82,3.26,15.82,15.17v16.64c0,11.9-3.78,15.17-15.82,15.17s-15.82-3.26-15.82-15.17h0Zm18.05.26V14.98c0-2.18-.74-2.94-2.23-2.94s-2.23.77-2.23,2.94v17.09c0,2.18.74,2.94,2.23,2.94s2.23-.77,2.23-2.94Z" fill="#1d1e1b"/><path d="m176.02,38.08V8.45c0-3.07,0-5.38-.06-7.68h21.84l1.05,12.03c.43,5.25.74,11.2.93,16.64.19-5.5.43-11.46.87-16.77l.99-11.9h20.66c-.06,2.3-.06,4.67-.06,7.81v29.37c0,3.33,0,5.82.06,8.26h-12.97v-6.72c0-4.35.31-16.06.5-25.66h-.62c-.68,6.27-1.49,13.5-2.3,19.65l-1.61,12.73h-12.84l-1.55-12.86c-.74-6.08-1.55-13.25-2.3-19.52h-.81c.25,9.09.5,20.35.5,25.66v6.72h-12.35c.06-2.43.06-4.86.06-8.13h.01Z" fill="#1d1e1b"/><path d="m225.84,8.58c0-3.14,0-5.57-.06-7.81h23.45v11.45c-3.72-.06-5.89-.06-9-.06h-1.12v5.7h9v10.69c-3.1-.06-6.02-.06-8.5-.06h-.5v6.34h1.92c2.48,0,3.97,0,8.93-.06v11.46h-24.2c.06-2.37.06-4.99.06-8.32V8.58h.02Z" fill="#1d1e1b"/><path d="m273.61,12.99h-7.51V.77h28.17v12.22h-7.38v24.89c0,3.39,0,5.82.06,8.32h-13.4c.06-2.43.06-4.99.06-8.32V12.99Z" fill="#1d1e1b"/><path d="m295.76,31.81V15.17c0-11.9,3.78-15.17,15.82-15.17s15.82,3.26,15.82,15.17v16.64c0,11.9-3.78,15.17-15.82,15.17s-15.82-3.26-15.82-15.17Zm18.05.26V14.98c0-2.18-.74-2.94-2.23-2.94s-2.23.77-2.23,2.94v17.09c0,2.18.74,2.94,2.23,2.94s2.23-.77,2.23-2.94Z" fill="#1d1e1b"/><path d="m369.09,46.2h-20.6c-1.3-11.84-3.91-33.53-5.34-45.44h14.76l.5,16.13c.19,5.63.31,11.52.62,17.41h.99c.5-5.82.99-11.65,1.43-17.21l1.36-16.32h17.62l1.49,15.93c.5,5.63,1.05,11.58,1.61,17.6h.81c.25-6.02.37-12.03.56-17.73l.43-15.81h14.27c-1.49,11.9-4.28,33.53-5.71,45.44h-20.41l-.81-12.22c-.31-5.31-.68-12.03-1.18-19.07-.5,7.04-.99,13.76-1.43,19.13l-.99,12.16h.02Z" fill="#1d1e1b"/><path d="m399.87,31.81V15.17c0-11.9,3.78-15.17,15.82-15.17s15.82,3.26,15.82,15.17v16.64c0,11.9-3.78,15.17-15.82,15.17s-15.82-3.26-15.82-15.17Zm18.05.26V14.98c0-2.18-.74-2.94-2.23-2.94s-2.23.77-2.23,2.94v17.09c0,2.18.74,2.94,2.23,2.94s2.23-.77,2.23-2.94Z" fill="#1d1e1b"/><path d="m433.49,31.81V15.17c0-11.9,3.78-15.17,15.82-15.17s15.82,3.26,15.82,15.17v16.64c0,11.9-3.78,15.17-15.82,15.17s-15.82-3.26-15.82-15.17Zm18.05.26V14.98c0-2.18-.74-2.94-2.23-2.94s-2.23.77-2.23,2.94v17.09c0,2.18.74,2.94,2.23,2.94s2.23-.77,2.23-2.94Z" fill="#1d1e1b"/><path d="m497.21,8.77v4.54c0,3.58.06,7.23.06,18.49,0,11.9-3.35,15.17-15.2,15.17s-14.83-3.26-14.83-15.17v-7.55l12.97-.13v7.94c0,2.18.74,2.94,1.86,2.94s1.86-.77,1.86-2.94V8.45c0-3.14,0-5.76-.06-7.68h13.4c-.06,2.18-.06,4.8-.06,8h0Z" fill="#1d1e1b"/><path d="m558.77,31.94V15.46c0-11.79,1.64-15.03,6.88-15.03s6.88,3.23,6.88,15.03v16.48c0,11.79-1.64,15.03-6.88,15.03s-6.88-3.23-6.88-15.03Zm7.85.26V15.27c0-2.16-.32-2.91-.97-2.91s-.97.76-.97,2.91v16.93c0,2.16.32,2.91.97,2.91s.97-.76.97-2.91Z" fill="#fff"/><g><path d="m532.91,47.4c-.32-.04-.63-.09-.95-.11-1.79-.17-3.55-.55-5.25-1.14-1.98-.66-3.87-1.59-5.6-2.76-1.37-.92-2.64-1.99-3.78-3.19-2-2.07-3.6-4.49-4.74-7.14-.88-2.06-1.45-4.23-1.71-6.45-.15-1.42-.19-2.84-.1-4.26.07-1.18.23-2.36.49-3.51.38-1.69.94-3.34,1.67-4.92.96-2.03,2.2-3.92,3.69-5.6,1.82-2.07,3.98-3.81,6.4-5.12,1.4-.76,2.87-1.37,4.39-1.84,1.62-.49,3.29-.81,4.98-.93,2.05-.17,4.11-.07,6.13.3,1.89.35,3.73.92,5.48,1.71,1.36.62,2.65,1.37,3.87,2.23,1.09.77,2.12,1.64,3.06,2.59,2.14,2.13,3.85,4.67,5.02,7.45.86,2.01,1.42,4.14,1.66,6.32.06.57.09,1.19.14,1.78h0c0,.06.02.12.05.18v1.79c-.02.08-.04.16-.05.24,0,.26,0,.52-.04.78-.1,1.37-.33,2.72-.67,4.05-.58,2.23-1.49,4.36-2.69,6.33-1.07,1.73-2.36,3.32-3.83,4.73-1.68,1.6-3.58,2.95-5.65,3.99-1.93,1-3.99,1.7-6.13,2.08-.64.11-1.3.19-1.95.28l-.95.14h-2.95Zm-20.91-23.52c0,5.8,2.25,11.37,6.29,15.53,4.04,4.16,9.55,6.58,15.34,6.74,3.12.13,6.24-.42,9.13-1.61,2.89-1.19,5.49-2.99,7.62-5.28,3.98-4.04,6.2-9.49,6.18-15.15.07-3.01-.5-5.99-1.65-8.77-1.15-2.78-2.88-5.28-5.06-7.35-2.12-2.13-4.67-3.79-7.47-4.88-2.8-1.09-5.8-1.59-8.8-1.47-5.79.18-11.27,2.6-15.3,6.75-4.03,4.16-6.28,9.72-6.28,15.5h0Z" fill="#010101"/><path d="m546.83,25.24l-.52.27c-.51.28-1.16.1-1.45-.41-.14-.24-.17-.53-.09-.8.08-.27.26-.49.51-.62.72-.39,1.46-.75,2.19-1.11.35-.19.72-.36,1.1-.49.48-.11.97.16,1.14.63.19.48,0,1.03-.46,1.29-.18.11-.37.2-.57.28-.14.06-.16.15-.15.29.03.77.1,1.54.07,2.31-.06,1.39-.32,2.77-.77,4.08-.62,1.83-1.59,3.52-2.85,4.98-1.56,1.82-3.57,3.21-5.82,4.04-1.75.66-3.61.94-5.47.84-2.13-.11-4.2-.71-6.06-1.75-1.74-.97-3.26-2.3-4.46-3.9-1.39-1.84-2.33-3.99-2.74-6.26-.18-.98-.26-1.97-.26-2.96,0-.47.05-.95.08-1.42.02-.11-.04-.21-.14-.24-.15-.07-.3-.16-.45-.23-.26-.12-.46-.33-.56-.6s-.08-.56.04-.81c.25-.5.85-.72,1.36-.48.42.18.82.4,1.23.61.61.3,1.22.57,1.82.92.29.15.49.43.55.75s-.05.65-.28.89c-.33.35-.86.43-1.28.2l-.57-.28v1.36c.04,1.23.26,2.45.64,3.62.89,2.78,2.7,5.17,5.12,6.79,1.23.82,2.61,1.4,4.05,1.71,2,.46,4.09.39,6.05-.2,1.78-.54,3.41-1.48,4.77-2.74,1.86-1.69,3.18-3.89,3.79-6.32.19-.85.32-1.72.38-2.59.04-.55.05-1.09.03-1.64h0Z" fill="#010101"/><path d="m527.14,15.09c-.03-1.37.13-2.73.49-3.99.14-.5.35-.96.6-1.34.24-.41.59-.63.95-.61.36.02.7.29.91.73.47.83.77,1.84.88,2.91.26,1.81.19,3.7-.2,5.46-.15.76-.43,1.45-.81,2-.22.35-.54.54-.86.54-.32,0-.63-.21-.85-.57-.4-.62-.69-1.39-.84-2.23-.2-.94-.29-1.91-.28-2.9h0Z" fill="#010101"/><path d="m537.49,15.09c-.03-1.37.13-2.73.49-3.99.14-.5.35-.96.6-1.34.24-.41.59-.63.95-.61.36.02.7.29.91.73.47.83.77,1.84.88,2.91.26,1.81.19,3.7-.2,5.46-.15.76-.43,1.45-.81,2-.22.35-.54.54-.86.54-.32,0-.63-.21-.85-.57-.4-.62-.69-1.39-.84-2.23-.2-.94-.29-1.91-.28-2.9h0Z" fill="#010101"/></g></svg>