<?xml version="1.0" encoding="UTF-8"?><svg id="Layer_1" xmlns="http://www.w3.org/2000/svg" viewBox="0 0 452.72 52.69"><path d="m295.42,35.67v-18.66c0-13.35,18.79-17.01,78.65-17.01s78.65,3.66,78.65,17.01v18.66c0,13.35-18.79,17.01-78.65,17.01s-78.65-3.66-78.65-17.01Zm89.74.29v-19.17c0-2.44-3.68-3.3-11.09-3.3s-11.09.86-11.09,3.3v19.17c0,2.44,3.68,3.3,11.09,3.3s11.09-.86,11.09-3.3Z" fill="#fff"/><g><path d="m26.75,49.06H5.5C4.16,37.22,1.47,15.53,0,3.63h15.23l.51,16.13c.19,5.63.32,11.52.64,17.41h1.02c.51-5.82,1.02-11.65,1.47-17.21l1.41-16.32h18.17l1.54,15.93c.51,5.63,1.09,11.58,1.66,17.6h.83c.26-6.02.38-12.03.58-17.73l.45-15.81h14.72c-1.54,11.9-4.42,33.53-5.89,45.44h-21.05l-.83-12.22c-.32-5.31-.7-12.03-1.22-19.07-.51,7.04-1.02,13.76-1.47,19.13l-1.02,12.16Z" fill="#1d1d1b"/><path d="m58.5,34.66v-16.64c0-11.9,3.9-15.17,16.32-15.17s16.32,3.26,16.32,15.17v16.64c0,11.9-3.9,15.17-16.32,15.17s-16.32-3.26-16.32-15.17Zm18.62.26v-17.09c0-2.18-.77-2.94-2.3-2.94s-2.3.77-2.3,2.94v17.09c0,2.18.77,2.94,2.3,2.94s2.3-.77,2.3-2.94Z" fill="#1d1d1b"/><path d="m93.18,34.66v-16.64c0-11.9,3.9-15.17,16.32-15.17s16.32,3.26,16.32,15.17v16.64c0,11.9-3.9,15.17-16.32,15.17s-16.32-3.26-16.32-15.17Zm18.62.26v-17.09c0-2.18-.77-2.94-2.3-2.94s-2.3.77-2.3,2.94v17.09c0,2.18.77,2.94,2.3,2.94s2.3-.77,2.3-2.94Z" fill="#1d1d1b"/><path d="m158.91,11.63v4.54c0,3.58.06,7.23.06,18.49,0,11.9-3.46,15.17-15.68,15.17s-15.29-3.26-15.29-15.17v-7.55l13.38-.13v7.94c0,2.18.77,2.94,1.92,2.94s1.92-.77,1.92-2.94V11.31c0-3.14,0-5.76-.06-7.68h13.82c-.06,2.18-.06,4.8-.06,8Z" fill="#1d1d1b"/><path d="m176.89,34.66v-16.64c0-11.9,3.9-15.17,16-15.17s15.74,3.26,15.74,15.17v4.86l-13.5.26v-5.44c0-2.18-.7-2.94-2.05-2.94s-2.18.77-2.18,2.94v17.34c0,2.18.77,2.94,2.18,2.94,1.54,0,2.18-.77,2.18-2.94v-5.5l13.5.26v4.8c0,11.97-4.22,15.23-15.87,15.23s-16-3.26-16-15.17Z" fill="#1d1d1b"/><path d="m211.52,40.74V11.43c0-3.14,0-5.5-.06-7.81h13.82c-.06,2.3-.06,4.67-.06,7.81v8.38h4.35v-8.38c0-3.14,0-5.5-.06-7.81h13.82c-.06,2.3-.06,4.67-.06,7.81v29.31c0,3.39,0,5.82.06,8.32h-13.82c.06-2.43.06-4.99.06-8.32v-9.15h-4.35v9.15c0,3.39,0,5.82.06,8.32h-13.82c.06-2.43.06-4.99.06-8.32Z" fill="#1d1d1b"/><path d="m246.14,34.66v-16.64c0-11.9,3.9-15.17,16.32-15.17s16.32,3.26,16.32,15.17v16.64c0,11.9-3.9,15.17-16.32,15.17s-16.32-3.26-16.32-15.17Zm18.62.26v-17.09c0-2.18-.77-2.94-2.3-2.94s-2.3.77-2.3,2.94v17.09c0,2.18.77,2.94,2.3,2.94s2.3-.77,2.3-2.94Z" fill="#1d1d1b"/><path d="m281.66,11.43c0-3.14,0-5.5-.06-7.81h13.82c-.06,2.3-.06,4.67-.06,7.81v29.31c0,3.39,0,5.82.06,8.32h-13.82c.06-2.43.06-4.99.06-8.32V11.43Z" fill="#1d1d1b"/></g></svg>